<svg width="367.3" height="70" viewBox="0 0 367.3 70" xmlns="http://www.w3.org/2000/svg">
    <g fill="white" id="svgGroup" stroke-linecap="round" fill-rule="evenodd" font-size="9pt" stroke="#000" stroke-width="0.25mm">
        <path d="M 276.3 26.5 L 276.3 0 L 291.9 0 L 291.9 69.3 L 276.3 69.3 L 276.3 39.9 L 250.1 39.9 L 250.1 69.3 L 234.5 69.3 L 234.5 0 L 250.1 0 L 250.1 26.5 L 276.3 26.5 Z M 59.4 69.3 L 40.9 69.3 Q 38.8 65.9 35.95 61.95 A 126.747 126.747 0 0 0 30.58 55.038 A 139.059 139.059 0 0 0 29.75 54.05 Q 26.4 50.1 22.8 46.45 A 78.847 78.847 0 0 0 18.3 42.22 A 66.155 66.155 0 0 0 15.6 40 L 15.6 69.3 L 0 69.3 L 0 0 L 15.6 0 L 15.6 26.2 Q 21.7 19.8 27.85 12.85 Q 34 5.9 39.3 0 L 57.8 0 Q 50.7 8.4 43.55 16.2 Q 36.4 24 28.5 31.9 A 111.601 111.601 0 0 1 39.157 42.076 A 135.495 135.495 0 0 1 44.55 48.3 A 189.163 189.163 0 0 1 55.753 63.589 A 219.25 219.25 0 0 1 59.4 69.3 Z M 367.3 69.3 L 348.8 69.3 Q 346.7 65.9 343.85 61.95 A 126.747 126.747 0 0 0 338.48 55.038 A 139.059 139.059 0 0 0 337.65 54.05 Q 334.3 50.1 330.7 46.45 A 78.847 78.847 0 0 0 326.2 42.22 A 66.155 66.155 0 0 0 323.5 40 L 323.5 69.3 L 307.9 69.3 L 307.9 0 L 323.5 0 L 323.5 26.2 Q 329.6 19.8 335.75 12.85 Q 341.9 5.9 347.2 0 L 365.7 0 Q 358.6 8.4 351.45 16.2 Q 344.3 24 336.4 31.9 A 111.601 111.601 0 0 1 347.057 42.076 A 135.495 135.495 0 0 1 352.45 48.3 A 189.163 189.163 0 0 1 363.653 63.589 A 219.25 219.25 0 0 1 367.3 69.3 Z M 143.4 13.2 L 112.3 13.2 L 112.3 24.6 L 117.4 24.6 A 84.83 84.83 0 0 1 124.256 24.864 Q 127.936 25.162 131.15 25.8 A 35.065 35.065 0 0 1 136.08 27.137 Q 138.809 28.108 141.019 29.489 A 21.578 21.578 0 0 1 141.35 29.7 Q 145.5 32.4 147.7 36.7 Q 149.694 40.597 149.881 46.054 A 33.476 33.476 0 0 1 149.9 47.2 A 24.974 24.974 0 0 1 148.958 54.266 A 17.977 17.977 0 0 1 141.55 64.35 Q 133.2 70 117.7 70 A 84.032 84.032 0 0 1 113.805 69.904 Q 111.821 69.812 109.632 69.631 A 140.949 140.949 0 0 1 108.15 69.5 Q 102.8 69 97.4 67.7 L 97.4 0 L 143.4 0 L 143.4 13.2 Z M 225.5 69.3 L 208.8 69.3 A 171.875 171.875 0 0 0 206.684 62.847 A 190.479 190.479 0 0 0 206.35 61.9 Q 205 58.1 203.7 54.3 L 176.7 54.3 Q 175.4 58.1 174.05 61.9 A 176.372 176.372 0 0 0 171.879 68.397 A 158.976 158.976 0 0 0 171.6 69.3 L 155.4 69.3 Q 159.3 58.1 162.8 48.6 Q 166.3 39.1 169.65 30.7 Q 173 22.3 176.25 14.75 Q 179.5 7.2 183 0 L 197.9 0 Q 201.3 7.2 204.6 14.75 Q 207.9 22.3 211.25 30.7 Q 214.6 39.1 218.1 48.6 Q 221.6 58.1 225.5 69.3 Z M 57.9 46.2 L 57.9 32.7 L 86.9 32.7 L 86.9 46.2 L 57.9 46.2 Z M 180.3 41.9 L 200 41.9 A 1039.15 1039.15 0 0 0 197.656 35.375 A 907.159 907.159 0 0 0 196.9 33.3 Q 195.4 29.2 194.05 25.8 A 757.32 757.32 0 0 1 192.936 22.978 Q 192.263 21.262 191.7 19.8 Q 190.934 17.809 190.403 16.464 A 179.163 179.163 0 0 0 190.1 15.7 A 51.807 51.807 0 0 1 189.819 16.519 Q 189.35 17.85 188.6 19.8 Q 187.741 22.034 186.66 24.86 A 4593.693 4593.693 0 0 0 186.3 25.8 Q 185 29.2 183.45 33.3 Q 181.9 37.4 180.3 41.9 Z M 116.9 37.5 L 112.3 37.5 L 112.3 56.5 A 33.48 33.48 0 0 0 113.188 56.568 Q 113.585 56.593 114.025 56.614 A 64.908 64.908 0 0 0 114.95 56.65 A 89.584 89.584 0 0 0 116.392 56.684 Q 117.375 56.7 118.5 56.7 Q 121.6 56.7 124.4 56.3 Q 127.2 55.9 129.35 54.85 A 9.471 9.471 0 0 0 131.806 53.149 A 8.634 8.634 0 0 0 132.8 52 A 6.506 6.506 0 0 0 133.814 49.777 Q 134.1 48.659 134.1 47.3 Q 134.1 44.3 132.9 42.4 A 8.099 8.099 0 0 0 130.163 39.763 A 9.907 9.907 0 0 0 129.5 39.4 Q 127.537 38.419 124.779 37.994 A 24.278 24.278 0 0 0 124.1 37.9 Q 120.925 37.503 116.962 37.5 A 79.858 79.858 0 0 0 116.9 37.5 Z" vector-effect="non-scaling-stroke"/>
    </g>
</svg>