<svg width="48" height="29" viewBox="0 0 48 29" fill="none" xmlns="http://www.w3.org/2000/svg">
<path d="M24.1073 25.0073C26.9801 22.3613 28.7945 18.5813 28.7945 14.4233C28.7945 10.1897 26.9801 6.4097 24.1073 3.83929C21.5369 1.57129 18.2105 0.134888 14.5061 0.134888C6.5681 0.134888 0.14209 6.5609 0.14209 14.4233C0.14209 22.3613 6.5681 28.7873 14.5061 28.7873C18.2105 28.7117 21.5369 27.2753 24.1073 25.0073Z" fill="#3362AB"/>
<path d="M24.1077 25.0074C26.9805 22.3614 28.7949 18.5814 28.7949 14.4234C28.7949 10.1898 26.9805 6.40976 24.1077 3.83936" fill="#3362AB"/>
<path d="M24.1077 25.0074C26.9805 22.3614 28.7949 18.5814 28.7949 14.4234C28.7949 10.1898 26.9805 6.40976 24.1077 3.83936" stroke="#3362AB" stroke-width="0.3097"/>
<path d="M33.7086 0.0593262C30.0042 0.0593262 26.6022 1.49572 24.1074 3.76373C23.5782 4.21733 23.1246 4.74653 22.671 5.27573H25.5438C25.9218 5.72933 26.2998 6.25853 26.6022 6.78773H21.537C21.2346 7.24133 20.9322 7.77053 20.7054 8.29973H27.4338C27.6606 8.82893 27.8874 9.28253 28.0386 9.81174H20.1006C19.9494 10.3409 19.7982 10.7945 19.647 11.3237H28.4166C28.6434 12.3065 28.719 13.2893 28.719 14.3477C28.719 15.9353 28.4922 17.4473 27.963 18.8837H20.025C20.1762 19.4129 20.403 19.9422 20.6298 20.3958H27.3582C27.1314 20.925 26.829 21.4542 26.5266 21.9078H21.4614C21.7638 22.437 22.1418 22.9662 22.5198 23.4198H25.3926C24.939 23.949 24.4854 24.4782 23.9562 24.9318C26.5266 27.1998 29.853 28.6362 33.5574 28.6362C41.4954 28.6362 47.8458 22.2102 47.8458 14.2721C48.0726 6.48534 41.6466 0.0593262 33.7086 0.0593262Z" fill="#C9191B"/>
<path d="M12.6917 17.9009H10.8773L11.9357 12.3065L9.51648 17.9009H7.92887L7.62647 12.3821L6.56805 17.9009H4.98047L6.34126 10.6433H9.13847L9.28966 15.1793L11.2553 10.6433H14.1281L12.6917 17.9009Z" fill="white"/>
<path d="M32.6501 17.9009C32.1965 18.0521 31.7429 18.1277 31.3649 18.1277C30.4577 18.1277 29.9285 17.6741 29.9285 16.8425C29.9285 16.6913 29.9284 16.4645 30.004 16.3133L30.0797 15.7085L30.1553 15.2549L30.9869 10.7189H32.7257L32.4989 12.0797H33.4061L33.1793 13.5161H32.2721L31.8185 16.0109C31.8185 16.0865 31.8185 16.2377 31.8185 16.2377C31.8185 16.5401 32.0453 16.6913 32.4233 16.6913C32.6501 16.6913 32.8013 16.6913 32.8769 16.6157L32.6501 17.9009Z" fill="white"/>
<path d="M37.7909 12.0797C37.6397 12.0041 37.6397 12.0042 37.5641 12.0042C37.4885 12.0042 37.4129 12.0042 37.4129 12.0042C37.3373 12.0042 37.2617 12.0042 37.1861 12.0042C36.5813 12.0042 36.2033 12.2309 35.5985 12.9869L35.7497 12.0797H34.3133L33.2549 17.9766H35.0693C35.6741 14.3477 35.9765 13.7429 36.8081 13.7429C36.8837 13.7429 36.9593 13.7429 37.0349 13.7429L37.2617 13.8185L37.7909 12.0797Z" fill="white"/>
<path d="M25.5439 13.8941C25.5439 14.6501 25.9975 15.1793 26.9047 15.5573C27.6607 15.8597 27.7363 15.9353 27.7363 16.2377C27.7363 16.6157 27.4339 16.7669 26.6779 16.7669C26.1487 16.7669 25.6195 16.6913 25.0903 16.5401L24.8635 17.9009H24.9391L25.2415 17.9765C25.3171 17.9765 25.5439 18.0521 25.6951 18.0521C26.1487 18.0521 26.4511 18.1277 26.6779 18.1277C28.5679 18.1277 29.4751 17.5229 29.4751 16.1621C29.4751 15.3305 29.0971 14.8769 28.1899 14.4989C27.4339 14.1965 27.3583 14.1209 27.3583 13.8185C27.3583 13.5161 27.6607 13.3649 28.2655 13.3649C28.6435 13.3649 29.0971 13.3649 29.5507 13.4405L29.7775 12.0797C29.3239 12.0041 28.6435 11.9285 28.1899 11.9285C26.2243 11.9285 25.5439 12.8357 25.5439 13.8941Z" fill="white"/>
<path d="M17.2277 15.3305C17.0009 15.3305 16.9253 15.3305 16.8497 15.3305C15.8669 15.3305 15.3377 15.6329 15.3377 16.2377C15.3377 16.6157 15.5645 16.8425 15.9425 16.8425C16.6229 16.7669 17.1521 16.1621 17.2277 15.3305ZM18.5129 17.9009H17.0009L17.0765 17.2961C16.6229 17.7497 16.0181 17.9765 15.1865 17.9765C14.2037 17.9765 13.5989 17.2961 13.5989 16.3889C13.5989 14.9525 14.7329 14.1209 16.6985 14.1209C16.9253 14.1209 17.1521 14.1209 17.4545 14.1965C17.5301 13.9697 17.5301 13.8941 17.5301 13.8185C17.5301 13.4405 17.2277 13.2893 16.3961 13.2893C15.8669 13.2893 15.3377 13.3649 14.9597 13.4405L14.7329 13.5161L14.5817 13.5917L14.8085 12.2309C15.7157 12.0041 16.2449 11.9285 16.9253 11.9285C18.4373 11.9285 19.2689 12.5333 19.2689 13.6673C19.2689 13.9697 19.2689 14.1965 19.1177 14.8013L18.7397 16.9181L18.6641 17.2961L18.5885 17.5985V17.8253L18.5129 17.9009Z" fill="white"/>
<path d="M23.4271 14.2721C23.4271 14.1209 23.4271 14.0453 23.4271 13.9697C23.4271 13.5161 23.1247 13.2137 22.5955 13.2137C21.9907 13.2137 21.6127 13.5917 21.4615 14.2721H23.4271ZM24.3343 17.8253C23.7295 17.9765 23.1247 18.0521 22.5199 18.0521C20.5543 18.0521 19.4958 17.1449 19.4958 15.4061C19.4958 13.3649 20.7811 11.8529 22.5955 11.8529C24.0319 11.8529 25.0147 12.6845 25.0147 13.9697C25.0147 14.4233 24.9391 14.8013 24.7879 15.4061H21.2347C21.2347 15.4817 21.2347 15.5573 21.2347 15.5573C21.2347 16.2377 21.7638 16.6157 22.8222 16.6157C23.4271 16.6157 24.0319 16.4645 24.7123 16.2377L24.3343 17.8253Z" fill="white"/>
<path d="M41.4954 14.4989C41.4954 13.8941 41.2686 13.2893 40.5126 13.2893C39.6054 13.2893 39.0762 14.3477 39.0762 15.3305C39.0762 16.1621 39.4542 16.6913 40.1346 16.6913C40.5126 16.6913 41.3442 16.1621 41.4954 15.2549C41.4954 15.0281 41.4954 14.7257 41.4954 14.4989ZM43.3854 15.2549C43.083 17.2205 41.7222 18.1277 39.9078 18.1277C37.8666 18.1277 37.1106 16.9181 37.1106 15.4061C37.1106 13.2893 38.4714 11.9285 40.5882 11.9285C42.4782 11.9285 43.3854 13.0625 43.3854 14.5745C43.461 14.8769 43.461 14.8769 43.3854 15.2549Z" fill="white"/>
</svg>
