<svg width="50" height="31" viewBox="0 0 50 31" fill="none" xmlns="http://www.w3.org/2000/svg">
<path d="M49.9359 15.4233C49.9359 23.5125 43.3587 30.1653 35.1939 30.1653C27.1047 30.1653 20.4519 23.5125 20.4519 15.4233C20.4519 7.33408 27.0291 0.681274 35.1183 0.681274C43.3587 0.681274 49.9359 7.33408 49.9359 15.4233Z" fill="#F9B50B"/>
<path d="M30.2043 15.4989C30.2043 14.4405 30.0531 13.3821 29.9019 12.3993H20.8299C20.9055 11.8701 21.0567 11.4165 21.2079 10.8117H29.2971C29.1459 10.2825 28.9191 9.75329 28.6923 9.22409H21.8127C22.0395 8.69489 22.3419 8.24128 22.6443 7.63648H27.8607C27.5583 7.10728 27.1803 6.57808 26.7267 6.04888H23.8539C24.3075 5.51968 24.7611 5.06608 25.3659 4.53688C22.7955 2.11768 19.3179 0.681274 15.4623 0.681274C7.44871 0.908075 0.795898 7.33408 0.795898 15.4233C0.795898 23.5125 7.37311 30.1653 15.5379 30.1653C19.3935 30.1653 22.7955 28.6533 25.4415 26.3097C25.9707 25.8561 26.4243 25.3269 26.9535 24.7221H23.9295C23.5515 24.2685 23.1735 23.7393 22.8711 23.2101H28.0119C28.3143 22.7565 28.6167 22.2273 28.8435 21.6225H21.9639C21.7371 21.1689 21.5103 20.6397 21.3591 20.0349H29.4483C29.9019 18.6741 30.2043 17.1621 30.2043 15.4989Z" fill="#C8191C"/>
<path d="M20.7543 19.2033L20.9811 17.8425C20.9055 17.8425 20.7543 17.9181 20.6031 17.9181C20.0739 17.9181 19.9983 17.6157 20.0739 17.4645L20.5275 14.7429H21.3591L21.5859 13.2309H20.8299L20.9811 12.3237H19.3935C19.3935 12.3237 18.4863 17.4645 18.4863 18.0693C18.4863 18.9765 19.0155 19.4301 19.7715 19.4301C20.2251 19.4301 20.6031 19.2789 20.7543 19.2033Z" fill="white"/>
<path d="M21.2837 16.7085C21.2837 18.9009 22.7957 19.4301 24.0053 19.4301C25.1393 19.4301 25.6685 19.2033 25.6685 19.2033L25.9709 17.6913C25.9709 17.6913 25.1393 18.0693 24.3077 18.0693C22.5689 18.0693 22.8713 16.7841 22.8713 16.7841H26.0465C26.0465 16.7841 26.2733 15.8013 26.2733 15.3477C26.2733 14.3648 25.7441 13.0796 24.0053 13.0796C22.4933 13.004 21.2837 14.7429 21.2837 16.7085ZM24.0053 14.4405C24.8369 14.4405 24.6857 15.4233 24.6857 15.4989H22.9469C23.0225 15.4233 23.1737 14.4405 24.0053 14.4405Z" fill="white"/>
<path d="M33.9088 19.2034L34.2112 17.4646C34.2112 17.4646 33.4552 17.8426 32.8504 17.8426C31.792 17.8426 31.2628 17.011 31.2628 16.0282C31.2628 14.1382 32.17 13.1554 33.304 13.1554C34.06 13.1554 34.7404 13.609 34.7404 13.609L34.9672 11.9457C34.9672 11.9457 34.06 11.5677 33.1528 11.5677C31.3384 11.5677 29.5996 13.1554 29.5996 16.1038C29.5996 18.0694 30.5068 19.3546 32.3968 19.3546C33.0772 19.4302 33.9088 19.2034 33.9088 19.2034Z" fill="white"/>
<path d="M12.2116 13.0042C11.1532 13.0042 10.3216 13.3066 10.3216 13.3066L10.0948 14.6674C10.0948 14.6674 10.7752 14.365 11.8336 14.365C12.3628 14.365 12.8164 14.4406 12.8164 14.8942C12.8164 15.1966 12.7408 15.2722 12.7408 15.2722H12.0604C10.6996 15.2722 9.26318 15.8014 9.26318 17.6158C9.26318 19.0522 10.1704 19.3546 10.7752 19.3546C11.8336 19.3546 12.3628 18.6742 12.4384 18.6742L12.3628 19.279H13.648L14.2528 14.9698C14.2528 13.0798 12.7408 13.0042 12.2116 13.0042ZM12.514 16.4818C12.514 16.7086 12.3628 17.9938 11.4556 17.9938C11.002 17.9938 10.8508 17.6158 10.8508 17.389C10.8508 17.011 11.0776 16.4818 12.2872 16.4818C12.4384 16.4818 12.514 16.4818 12.514 16.4818Z" fill="white"/>
<path d="M15.7648 19.3545C16.1428 19.3545 18.1084 19.4301 18.1084 17.3133C18.1084 15.3477 16.2184 15.7257 16.2184 14.9697C16.2184 14.5917 16.5208 14.4405 17.05 14.4405C17.2768 14.4405 18.1084 14.5161 18.1084 14.5161L18.3352 13.0797C18.3352 13.0797 17.806 12.9285 16.8232 12.9285C15.6892 12.9285 14.4796 13.3821 14.4796 14.9697C14.4796 16.7841 16.4452 16.6329 16.4452 17.3133C16.4452 17.7669 15.916 17.8425 15.538 17.8425C14.8576 17.8425 14.1016 17.6157 14.1016 17.6157L13.8748 19.0521C14.026 19.2033 14.4796 19.3545 15.7648 19.3545Z" fill="white"/>
<path d="M46.9121 11.7944L46.6097 13.9112C46.6097 13.9112 46.0049 13.1552 45.0977 13.1552C43.6613 13.1552 42.4517 14.894 42.4517 16.9352C42.4517 18.2204 43.0565 19.5056 44.4173 19.5056C45.3245 19.5056 45.9293 18.9008 45.9293 18.9008L45.8537 19.43H47.4413L48.5753 11.9456L46.9121 11.7944ZM46.1561 15.8768C46.1561 16.7084 45.7781 17.8424 44.8709 17.8424C44.3417 17.8424 44.0393 17.3888 44.0393 16.5572C44.0393 15.272 44.5685 14.516 45.3245 14.516C45.8537 14.5916 46.1561 14.9696 46.1561 15.8768Z" fill="white"/>
<path d="M3.66874 19.2788L4.57594 13.6844L4.72714 19.2788H5.78554L7.82675 13.6844L6.99514 19.2788H8.65835L9.94355 11.7944H7.37315L5.78554 16.406L5.70994 11.7944H3.44194L2.15674 19.2788H3.66874Z" fill="white"/>
<path d="M27.8606 19.2789C28.3142 16.7085 28.3898 14.5917 29.5238 14.9697C29.675 13.9869 29.9018 13.5333 30.053 13.1553H29.7506C29.0702 13.1553 28.4654 14.0625 28.4654 14.0625L28.6166 13.2309H27.1046L26.1218 19.2789H27.8606Z" fill="white"/>
<path d="M37.5375 13.0042C36.4791 13.0042 35.6475 13.3066 35.6475 13.3066L35.4207 14.6674C35.4207 14.6674 36.1011 14.365 37.1595 14.365C37.6887 14.365 38.1423 14.4406 38.1423 14.8942C38.1423 15.1966 38.0667 15.2722 38.0667 15.2722H37.3863C36.0255 15.2722 34.5891 15.8014 34.5891 17.6158C34.5891 19.0522 35.4963 19.3546 36.1011 19.3546C37.1595 19.3546 37.6887 18.6742 37.7643 18.6742L37.6887 19.279H39.1251L39.7299 14.9698C39.7299 13.0798 38.0667 13.0042 37.5375 13.0042ZM37.9155 16.4818C37.9155 16.7086 37.7643 17.9938 36.8571 17.9938C36.4035 17.9938 36.2523 17.6158 36.2523 17.389C36.2523 17.011 36.4791 16.4818 37.6887 16.4818C37.8399 16.4818 37.8399 16.4818 37.9155 16.4818Z" fill="white"/>
<path d="M40.9395 19.2789C41.3931 16.7085 41.4687 14.5917 42.6027 14.9697C42.7539 13.9869 42.9807 13.5333 43.1319 13.1553H42.8295C42.1491 13.1553 41.5443 14.0625 41.5443 14.0625L41.6955 13.2309H40.1835L39.2007 19.2789H40.9395Z" fill="white"/>
</svg>
