<svg width="55" height="17" viewBox="0 0 55 17" fill="none" xmlns="http://www.w3.org/2000/svg">
<path d="M48.985 0.673462H38.6851C39.2851 4.07346 42.5851 7.27347 46.1851 7.27347H54.3851C54.4851 6.97347 54.485 6.47346 54.485 6.17346C54.485 3.17346 51.985 0.673462 48.985 0.673462Z" fill="url(#paint0_linear_42_8100)"/>
<path d="M39.5852 7.87354V16.1735H44.5852V11.7735H48.9852C51.3852 11.7735 53.4852 10.0735 54.1852 7.87354H39.5852Z" fill="#4FAD50"/>
<path d="M21.9851 0.673462V16.0735H26.3851C26.3851 16.0735 27.4851 16.0735 28.0851 14.9735C31.0851 9.07347 31.9851 7.27347 31.9851 7.27347H32.5851V16.0735H37.5851V0.673462H33.1851C33.1851 0.673462 32.0851 0.773468 31.4851 1.77347C28.9851 6.87347 27.5851 9.47346 27.5851 9.47346H26.9851V0.673462H21.9851Z" fill="#4FAD50"/>
<path d="M0.985107 16.1734V0.773438H5.98511C5.98511 0.773438 7.38512 0.773434 8.18512 2.97343C10.1851 8.77343 10.3851 9.57344 10.3851 9.57344C10.3851 9.57344 10.7851 8.17343 12.5851 2.97343C13.3851 0.773434 14.7851 0.773438 14.7851 0.773438H19.7851V16.1734H14.7851V7.87344H14.1851L11.3851 16.1734H9.18512L6.38513 7.87344H5.78513V16.1734H0.985107Z" fill="#4FAD50"/>
<defs>
<linearGradient id="paint0_linear_42_8100" x1="38.6673" y1="4.02076" x2="54.4496" y2="4.02076" gradientUnits="userSpaceOnUse">
<stop stop-color="#27B1E6"/>
<stop offset="1" stop-color="#148ACA"/>
</linearGradient>
</defs>
</svg>
