<svg width="53" height="17" viewBox="0 0 53 17" fill="none" xmlns="http://www.w3.org/2000/svg">
<path d="M49.005 0.71228H45.7542C44.7714 0.71228 44.0154 1.01468 43.5618 1.99748L37.3625 16.1347H41.7474C41.7474 16.1347 42.5034 14.2447 42.6546 13.7911C43.1082 13.7911 47.4174 13.7911 48.0222 13.7911C48.1734 14.3203 48.5514 16.0591 48.5514 16.0591H52.4826L49.005 0.71228ZM43.8642 10.6159C44.2422 9.70869 45.5274 6.30669 45.5274 6.30669C45.5274 6.38229 45.9054 5.39949 46.0566 4.87029L46.359 6.23109C46.359 6.23109 47.1906 9.93549 47.3418 10.6915H43.8642V10.6159Z" fill="#3362AB"/>
<path d="M37.6649 11.0695C37.6649 14.2447 34.7921 16.3615 30.3317 16.3615C28.4417 16.3615 26.6273 15.9835 25.6445 15.5299L26.2493 12.0523L26.7785 12.2791C28.1393 12.8839 29.0465 13.1107 30.7097 13.1107C31.9193 13.1107 33.2045 12.6571 33.2045 11.5987C33.2045 10.9183 32.6753 10.4647 31.0121 9.70869C29.4245 8.95269 27.3077 7.74308 27.3077 5.55068C27.3077 2.52668 30.2561 0.485474 34.4141 0.485474C36.0017 0.485474 37.3625 0.787874 38.1941 1.16587L37.5893 4.49228L37.2869 4.18988C36.5309 3.88748 35.5481 3.58508 34.1117 3.58508C32.5241 3.66068 31.7681 4.34108 31.7681 4.94588C31.7681 5.62628 32.6753 6.15548 34.1117 6.83588C36.5309 7.96988 37.6649 9.25509 37.6649 11.0695Z" fill="#3362AB"/>
<path d="M0.772217 0.863436L0.847817 0.561035H7.34943C8.25663 0.561035 8.93703 0.863436 9.16383 1.84624L10.6002 8.65025C9.16383 5.02144 5.83742 2.07304 0.772217 0.863436Z" fill="#F9B50B"/>
<path d="M19.7478 0.712197L13.1706 16.059H8.71018L4.93018 3.207C7.65178 4.9458 9.91978 7.66741 10.7514 9.55741L11.205 11.145L15.2874 0.636597H19.7478V0.712197Z" fill="#3362AB"/>
<path d="M21.4866 0.636597H25.6446L22.9986 16.059H18.8406L21.4866 0.636597Z" fill="#3362AB"/>
</svg>
